# xmcd
#
# Track frame offsets:
# 150
# 13302
# 27570
# 42575
# 56914
# 71182
# 88417
# 103320
# 116395
# 124160
#
# Disc length: 1860 seconds
#
# Revision: 2
# Processed by: cddbd v1.4PL0 Copyright (c) Steve Scherf et al.
# Submitted via: Axialis_AX_CDPlayer 2.6
#
DISCID=9d07420a
DTITLE=Various Artist - Les Grandes Chansons Du Country Pop (Vol 1 of 2)
DYEAR=1900
DGENRE=Bass
TTITLE0=Ray Fontaine - Perce Les Nuages
TTITLE1=Ray Fontaine - Acky Breaky Dance
TTITLE2=Lynda Dénommée - Je Reviens D'un Long Voyage
TTITLE3=Robert Sawyer - Le Gout De Tes Levres
TTITLE4=Ray Fontaine - T'envoler
TTITLE5=Pierre Charron - La Chapelle
TTITLE6=Sylvie Beauchemin - Que Dieu Protege Notre Amour
TTITLE7=Pierre Charron - Quoi Qu'il Advienne
TTITLE8=Pierre Charron - Aimer, Souffrir et Pardonner
TTITLE9=Robert Sawyer - Je T'aime
EXTD=
EXTT0=
EXTT1=
EXTT2=
EXTT3=
EXTT4=
EXTT5=
EXTT6=
EXTT7=
EXTT8=
EXTT9=
PLAYORDER=
